<svg width="256" height="74" viewBox="0 0 256 74" fill="none" xmlns="http://www.w3.org/2000/svg">
<path d="M33.7084 59.4728C33.207 60.8865 32.5173 62.0606 31.6393 62.9952C30.7639 63.9226 29.779 64.5579 28.6846 64.9013C27.5856 65.235 26.4512 65.2266 25.2814 64.876L26.2385 62.1771C26.9657 62.3706 27.6622 62.3444 28.3282 62.0983C28.9871 61.8496 29.5786 61.4284 30.1027 60.8346C30.6267 60.2407 31.0382 59.5226 31.337 58.68C31.6712 57.7375 31.8032 56.8439 31.7331 55.9991C31.6629 55.1544 31.4085 54.4211 30.9699 53.7994C30.5313 53.1776 29.9264 52.73 29.1553 52.4565C28.3484 52.1704 27.5671 52.1184 26.8112 52.3005C26.0483 52.48 25.3551 52.8933 24.7318 53.5404C24.1084 54.1874 23.5993 55.0679 23.2043 56.1817L22.5814 57.9382L20.2251 57.1026L20.848 55.3461C21.157 54.4751 21.2708 53.6554 21.1896 52.8871C21.1109 52.1116 20.8518 51.437 20.4123 50.8631C19.9753 50.2821 19.3712 49.8549 18.6001 49.5814C17.8575 49.3181 17.1531 49.2532 16.4868 49.3866C15.8206 49.5201 15.2276 49.8323 14.7079 50.3232C14.1907 50.8069 13.789 51.4522 13.5029 52.259C13.2345 53.0159 13.1205 53.7793 13.161 54.5492C13.1968 55.3094 13.4006 55.9926 13.7725 56.5987C14.1372 57.2023 14.6773 57.6511 15.3929 57.945L14.4814 60.5155C13.347 60.065 12.4631 59.3616 11.8296 58.4055C11.1889 57.4468 10.8119 56.3566 10.6986 55.1348C10.5878 53.9059 10.7565 52.6596 11.2047 51.3958C11.6858 50.0392 12.3734 48.9728 13.2676 48.1968C14.1546 47.4181 15.1368 46.9265 16.2141 46.7218C17.2915 46.5171 18.3478 46.5983 19.3831 46.9654C20.6184 47.4035 21.5563 48.1018 22.197 49.0605C22.8402 50.012 23.1333 51.1007 23.0764 52.3264L23.2478 52.3871C23.9675 51.083 24.9402 50.2102 26.1658 49.7687C27.3843 49.3246 28.6897 49.3495 30.082 49.8433C31.2744 50.2661 32.2302 50.9708 32.9494 51.9573C33.664 52.9342 34.0951 54.0757 34.2428 55.382C34.3904 56.6883 34.2123 58.0519 33.7084 59.4728ZM32.9097 46.4935L30.7248 45.7187L18.892 30.671L19.4541 29.0859L22.8385 30.2861L22.4587 31.3571L31.4 42.7268L31.5714 42.7876L36.1747 29.8069L38.531 30.6425L32.9097 46.4935ZM41.0694 37.7642L35.9071 35.9334L34.8896 35.5726L19.1351 29.9855L20.0314 27.458L41.9657 35.2366L41.0694 37.7642ZM47.3808 20.9191C46.8794 22.3328 46.1897 23.507 45.3117 24.4415C44.4363 25.3689 43.4514 26.0042 42.357 26.3476C41.258 26.6813 40.1236 26.6729 38.9538 26.3223L39.9109 23.6234C40.6381 23.8169 41.3346 23.7907 42.0006 23.5446C42.6595 23.2959 43.251 22.8747 43.7751 22.2809C44.2991 21.687 44.7106 20.9689 45.0094 20.1263C45.3436 19.1839 45.4756 18.2902 45.4055 17.4455C45.3353 16.6007 45.0809 15.8674 44.6423 15.2457C44.2036 14.6239 43.5988 14.1763 42.8276 13.9028C42.0208 13.6167 41.2395 13.5647 40.4836 13.7468C39.7207 13.9263 39.0275 14.3396 38.4042 14.9867C37.7808 15.6337 37.2717 16.5142 36.8767 17.628L36.2538 19.3845L33.8975 18.5489L34.5204 16.7925C34.8294 15.9214 34.9432 15.1017 34.862 14.3334C34.7833 13.5579 34.5242 12.8833 34.0847 12.3094C33.6477 11.7284 33.0436 11.3012 32.2725 11.0277C31.5299 10.7644 30.8255 10.6995 30.1592 10.8329C29.493 10.9664 28.9 11.2786 28.3803 11.7695C27.8631 12.2532 27.4614 12.8985 27.1753 13.7053C26.9069 14.4622 26.7929 15.2256 26.8334 15.9955C26.8692 16.7557 27.073 17.4389 27.4449 18.045C27.8096 18.6486 28.3497 19.0974 29.0653 19.3913L28.1538 21.9618C27.0194 21.5113 26.1355 20.8079 25.5019 19.8518C24.8613 18.8932 24.4843 17.8029 24.371 16.5812C24.2602 15.3522 24.4289 14.1059 24.8771 12.8421C25.3582 11.4855 26.0458 10.4191 26.94 9.64307C27.827 8.86446 28.8092 8.3728 29.8865 8.16808C30.9639 7.96337 32.0202 8.04459 33.0555 8.41175C34.2907 8.8498 35.2287 9.54816 35.8694 10.5068C36.5126 11.4583 36.8057 12.547 36.7488 13.7727L36.9202 13.8335C37.6399 12.5293 38.6126 11.6565 39.8382 11.215C41.0567 10.771 42.3621 10.7958 43.7544 11.2896C44.9468 11.7124 45.9026 12.4171 46.6218 13.4036C47.3364 14.3805 47.7675 15.5221 47.9151 16.8283C48.0628 18.1346 47.8847 19.4982 47.3808 20.9191Z" fill="#9E9328"/>
<path d="M202.777 46.3333C201.229 46.1308 199.898 45.6777 198.783 44.974C197.677 44.2638 196.856 43.381 196.322 42.3255C195.789 41.2624 195.607 40.1079 195.778 38.862C195.898 37.8845 196.208 37.0081 196.707 36.233C197.206 35.4503 197.831 34.8252 198.579 34.3579C199.337 33.8839 200.146 33.6269 201.007 33.5868L201.025 33.4516C199.958 33.0216 199.16 32.2869 198.631 31.2474C198.104 30.2003 197.924 29.0651 198.091 27.8417C198.237 26.6689 198.671 25.6598 199.393 24.8145C200.115 23.9692 201.036 23.3487 202.158 22.953C203.287 22.5583 204.527 22.4494 205.879 22.6264C207.216 22.8014 208.376 23.2243 209.358 23.8953C210.34 24.5662 211.071 25.403 211.551 26.4056C212.038 27.4092 212.209 28.4974 212.063 29.6702C211.895 30.8936 211.418 31.9428 210.631 32.8178C209.853 33.6863 208.904 34.1924 207.785 34.3363L207.767 34.4715C208.581 34.7309 209.286 35.186 209.881 35.8369C210.477 36.4802 210.919 37.2448 211.208 38.1307C211.498 39.0091 211.583 39.9371 211.463 40.9146C211.292 42.1605 210.808 43.228 210.012 44.1171C209.224 44.9996 208.204 45.6416 206.952 46.0431C205.708 46.4381 204.317 46.5348 202.777 46.3333ZM203.101 43.8545C204.145 43.9911 205.069 43.9401 205.872 43.7013C206.675 43.4626 207.323 43.0623 207.817 42.5004C208.311 41.9385 208.615 41.2449 208.731 40.4196C208.837 39.5472 208.713 38.7478 208.357 38.0213C208.001 37.2947 207.466 36.6898 206.75 36.2064C206.041 35.724 205.198 35.4189 204.222 35.2911C203.238 35.1623 202.334 35.2389 201.51 35.5207C200.694 35.8035 200.02 36.2502 199.49 36.8608C198.966 37.4723 198.652 38.2142 198.545 39.0866C198.429 39.9119 198.534 40.659 198.859 41.3281C199.192 41.9981 199.719 42.5523 200.441 42.9906C201.163 43.4289 202.05 43.7168 203.101 43.8545ZM204.535 32.9024C205.361 33.0105 206.115 32.9411 206.797 32.6942C207.486 32.4482 208.053 32.0526 208.499 31.5073C208.945 30.9621 209.224 30.2918 209.335 29.4966C209.43 28.7143 209.335 28.0105 209.05 27.3849C208.766 26.7518 208.326 26.2357 207.728 25.8366C207.132 25.4301 206.41 25.1713 205.561 25.0602C204.697 24.9471 203.921 25.0098 203.233 25.2483C202.545 25.4792 201.987 25.8646 201.557 26.4043C201.128 26.9365 200.867 27.5937 200.772 28.3759C200.66 29.1711 200.746 29.8891 201.029 30.5297C201.319 31.1713 201.766 31.6996 202.368 32.1147C202.971 32.5297 203.693 32.7923 204.535 32.9024ZM222.149 48.8685C220.827 48.6955 219.67 48.2767 218.68 47.6123C217.69 46.9479 216.935 46.1157 216.417 45.1157C215.898 44.1157 215.685 43.0259 215.779 41.8462L218.483 42.2001C218.451 43.258 218.812 44.1837 219.563 44.9774C220.324 45.7645 221.294 46.2353 222.473 46.3896C223.419 46.5135 224.29 46.402 225.084 46.0551C225.886 45.7093 226.547 45.177 227.069 44.4584C227.6 43.7332 227.929 42.8786 228.058 41.8945C228.19 40.888 228.086 39.9613 227.746 39.1146C227.414 38.2613 226.895 37.5555 226.189 36.997C225.483 36.4385 224.638 36.0911 223.655 35.9548C222.95 35.8549 222.211 35.8689 221.438 35.997C220.666 36.1175 220.017 36.3191 219.491 36.6017L216.918 35.9441L219.801 24.7692L231.79 26.3382L231.466 28.8171L221.821 27.5548L220.119 34.2542L220.254 34.2719C220.776 33.9583 221.411 33.7242 222.157 33.5697C222.903 33.4152 223.663 33.3886 224.436 33.4899C225.848 33.6747 227.062 34.1774 228.078 34.9979C229.102 35.812 229.854 36.8424 230.332 38.0893C230.819 39.3372 230.964 40.7085 230.768 42.2034C230.576 43.6757 230.073 44.9469 229.261 46.0172C228.457 47.081 227.436 47.872 226.199 48.3901C224.964 48.9007 223.613 49.0602 222.149 48.8685ZM241.633 51.4184C240.086 51.2159 238.754 50.7628 237.639 50.0591C236.533 49.3489 235.712 48.4661 235.178 47.4105C234.645 46.3475 234.464 45.193 234.634 43.947C234.755 42.9695 235.064 42.0932 235.563 41.318C236.063 40.5354 236.687 39.9103 237.436 39.4429C238.193 38.969 239.002 38.712 239.863 38.6719L239.881 38.5366C238.814 38.1067 238.016 37.372 237.487 36.3324C236.96 35.2854 236.78 34.1502 236.947 32.9268C237.093 31.754 237.527 30.7449 238.249 29.8996C238.971 29.0543 239.893 28.4338 241.014 28.0381C242.143 27.6434 243.383 27.5345 244.736 27.7115C246.073 27.8864 247.232 28.3094 248.214 28.9804C249.196 29.6513 249.927 30.4881 250.407 31.4907C250.894 32.4942 251.065 33.5824 250.919 34.7552C250.752 35.9787 250.274 37.0279 249.487 37.9029C248.709 38.7713 247.76 39.2775 246.641 39.4214L246.624 39.5566C247.438 39.8159 248.142 40.2711 248.737 40.9219C249.333 41.5653 249.775 42.3299 250.064 43.2158C250.354 44.0942 250.439 45.0222 250.319 45.9997C250.148 47.2456 249.664 48.3131 248.868 49.2021C248.08 50.0846 247.06 50.7267 245.808 51.1282C244.565 51.5232 243.173 51.6199 241.633 51.4184ZM241.957 48.9395C243.002 49.0762 243.925 49.0251 244.728 48.7864C245.531 48.5477 246.179 48.1473 246.673 47.5854C247.167 47.0236 247.471 46.33 247.587 45.5047C247.694 44.6323 247.569 43.8329 247.213 43.1063C246.858 42.3798 246.322 41.7748 245.606 41.2915C244.897 40.8091 244.055 40.504 243.078 40.3762C242.094 40.2474 241.19 40.3239 240.366 40.6058C239.55 40.8886 238.876 41.3353 238.346 41.9458C237.823 42.5574 237.508 43.2993 237.401 44.1716C237.286 44.9969 237.39 45.7441 237.715 46.4132C238.048 47.0832 238.575 47.6373 239.297 48.0756C240.019 48.5139 240.906 48.8019 241.957 48.9395ZM243.391 37.9875C244.217 38.0956 244.971 38.0262 245.653 37.7792C246.342 37.5333 246.91 37.1377 247.355 36.5924C247.801 36.0471 248.08 35.3769 248.191 34.5816C248.286 33.7994 248.191 33.0955 247.906 32.4699C247.622 31.8368 247.182 31.3208 246.585 30.9217C245.988 30.5152 245.266 30.2563 244.417 30.1452C243.553 30.0322 242.777 30.0949 242.089 30.3334C241.402 30.5643 240.843 30.9496 240.413 31.4894C239.985 32.0215 239.723 32.6787 239.628 33.4609C239.516 34.2562 239.602 34.9741 239.885 35.6148C240.175 36.2563 240.622 36.7847 241.225 37.1997C241.827 37.6148 242.549 37.8774 243.391 37.9875Z" fill="#238D12"/>
<path d="M50.9935 38.7812V36.7012H51.3135C51.6975 36.7012 52.0281 36.6586 52.3055 36.5732C52.5828 36.4879 52.8068 36.3492 52.9775 36.1572C53.1481 35.9439 53.2335 35.6772 53.2335 35.3572V19.2932C53.2335 18.9732 53.1481 18.7386 52.9775 18.5892C52.8068 18.4186 52.5828 18.3012 52.3055 18.2372C52.0281 18.1732 51.6975 18.1412 51.3135 18.1412H50.9935V16.0612H60.9775L69.5535 33.7572L68.7535 33.4692V18.6532C68.7535 18.5466 68.6468 18.4612 68.4335 18.3972C68.2415 18.3332 67.9748 18.2799 67.6335 18.2372C67.3135 18.1732 66.9828 18.1412 66.6415 18.1412H66.2255V16.0612H73.6175V18.1412H73.2975C72.9348 18.1412 72.6041 18.1839 72.3055 18.2692C72.0281 18.3332 71.8041 18.4506 71.6335 18.6212C71.4628 18.7919 71.3775 19.0479 71.3775 19.3892V38.7812H65.6175L54.9935 17.3092L55.8575 17.5332V36.2212C55.8575 36.2852 55.9641 36.3599 56.1775 36.4452C56.3908 36.5092 56.6575 36.5732 56.9775 36.6372C57.2975 36.6799 57.6281 36.7012 57.9695 36.7012H58.4175V38.7812H50.9935ZM82.253 22.3652V33.5652C82.253 34.1199 82.3063 34.5786 82.413 34.9412C82.541 35.2826 82.733 35.5386 82.989 35.7092C83.245 35.8799 83.5863 35.9652 84.013 35.9652C84.4823 35.9652 84.9303 35.8372 85.357 35.5812C85.7836 35.3252 86.1996 34.9306 86.605 34.3972C87.0103 33.8426 87.405 33.1279 87.789 32.2532L87.853 35.1652C87.4263 36.0399 86.9036 36.7652 86.285 37.3412C85.6876 37.9172 85.0156 38.3546 84.269 38.6532C83.5223 38.9519 82.701 39.1013 81.805 39.1013C80.717 39.1013 79.7676 38.8986 78.957 38.4932C78.1463 38.0666 77.517 37.4479 77.069 36.6372C76.6423 35.8052 76.429 34.7812 76.429 33.5652V25.5332C76.429 25.1919 76.3116 24.9572 76.077 24.8292C75.8423 24.7012 75.469 24.5839 74.957 24.4772L74.669 24.4132V22.3652H82.253ZM92.973 22.3652V35.7732C92.973 35.9866 93.037 36.1572 93.165 36.2852C93.293 36.4132 93.4743 36.5092 93.709 36.5732C93.9436 36.6372 94.221 36.6906 94.541 36.7332L94.733 36.7652V38.7812H87.533V35.1012L87.149 35.2292V25.5332C87.149 25.1919 86.989 24.9572 86.669 24.8292C86.349 24.6799 85.933 24.5626 85.421 24.4772L84.941 24.4132V22.3652H92.973ZM84.141 16.6372C84.3116 16.0826 84.5143 15.6026 84.749 15.1972C85.005 14.7919 85.3143 14.4826 85.677 14.2692C86.0396 14.0559 86.477 13.9492 86.989 13.9492C87.6503 13.9492 88.1836 14.1306 88.589 14.4932C88.9943 14.8559 89.197 15.3146 89.197 15.8692C89.197 16.2319 89.1223 16.5839 88.973 16.9252C88.8236 17.2666 88.6103 17.5972 88.333 17.9172C88.0556 18.2372 87.693 18.5466 87.245 18.8452L84.781 20.8612H83.085V20.0292L84.141 16.6372ZM96.0202 38.7812V36.8292H96.0522C96.5429 36.8292 96.9375 36.7652 97.2362 36.6372C97.5562 36.5092 97.7162 36.2532 97.7162 35.8692V25.5332C97.7162 25.3199 97.6629 25.1492 97.5562 25.0212C97.4709 24.8932 97.3215 24.7972 97.1082 24.7332C96.8949 24.6479 96.6175 24.5626 96.2762 24.4772L96.0202 24.4132V22.3652H103.188V26.0132L103.572 25.9172V36.5412C103.572 36.6052 103.636 36.6692 103.764 36.7332C103.914 36.7759 104.074 36.8079 104.244 36.8292C104.436 36.8292 104.618 36.8292 104.788 36.8292H104.884V38.7812H96.0202ZM114.996 38.7812H106.516V36.8292H106.548C106.74 36.8292 106.932 36.8292 107.124 36.8292C107.316 36.8079 107.476 36.7759 107.604 36.7332C107.754 36.6692 107.828 36.6052 107.828 36.5412V27.5492C107.828 27.0159 107.786 26.5786 107.7 26.2372C107.615 25.8746 107.466 25.6079 107.252 25.4372C107.06 25.2666 106.772 25.1812 106.388 25.1812C105.983 25.1812 105.588 25.3092 105.204 25.5652C104.82 25.7999 104.436 26.1839 104.052 26.7172C103.69 27.2506 103.316 27.9546 102.932 28.8292L102.868 25.9492C103.316 25.1172 103.818 24.4132 104.372 23.8372C104.927 23.2612 105.556 22.8239 106.26 22.5252C106.986 22.2052 107.775 22.0452 108.628 22.0452C109.631 22.0452 110.516 22.2586 111.284 22.6852C112.052 23.0906 112.639 23.7092 113.044 24.5412C113.471 25.3519 113.684 26.3652 113.684 27.5812V36.5092C113.684 36.5946 113.748 36.6692 113.876 36.7332C114.026 36.7759 114.196 36.8079 114.388 36.8292C114.602 36.8292 114.794 36.8292 114.964 36.8292H114.996V38.7812ZM125.556 38.7812H116.66V36.8292H116.724C116.895 36.8292 117.076 36.8186 117.268 36.7972C117.46 36.7759 117.62 36.7439 117.748 36.7012C117.898 36.6586 117.972 36.6052 117.972 36.5412V27.5492C117.972 27.0159 117.919 26.5786 117.812 26.2372C117.727 25.8746 117.578 25.6079 117.364 25.4372C117.172 25.2666 116.884 25.1812 116.5 25.1812C116.074 25.1812 115.668 25.3199 115.284 25.5972C114.9 25.8532 114.527 26.2479 114.164 26.7812C113.802 27.2932 113.428 27.9546 113.044 28.7652L112.98 25.9492C113.428 25.1172 113.93 24.4132 114.484 23.8372C115.06 23.2612 115.7 22.8239 116.404 22.5252C117.108 22.2052 117.887 22.0452 118.74 22.0452C119.743 22.0452 120.628 22.2586 121.396 22.6852C122.164 23.0906 122.751 23.7092 123.156 24.5412C123.583 25.3519 123.796 26.3652 123.796 27.5812V35.8692C123.796 36.2532 123.956 36.5092 124.276 36.6372C124.596 36.7652 124.991 36.8292 125.46 36.8292H125.556V38.7812ZM132.944 30.6532C132.944 31.6132 133.029 32.4666 133.2 33.2132C133.371 33.9386 133.637 34.5572 134 35.0692C134.363 35.5599 134.811 35.9332 135.344 36.1892C135.899 36.4239 136.539 36.5412 137.264 36.5412C138.032 36.5412 138.693 36.4026 139.248 36.1252C139.803 35.8266 140.283 35.4426 140.688 34.9732C141.093 34.5039 141.424 34.0346 141.68 33.5652L143.664 34.9732C143.259 35.7839 142.725 36.4986 142.064 37.1172C141.403 37.7359 140.603 38.2266 139.664 38.5892C138.747 38.9306 137.648 39.1013 136.368 39.1013C134.512 39.1013 132.88 38.7599 131.472 38.0772C130.085 37.3946 129.008 36.4239 128.24 35.1652C127.472 33.8852 127.088 32.3706 127.088 30.6212C127.088 28.9146 127.461 27.4212 128.208 26.1412C128.976 24.8399 130.011 23.8372 131.312 23.1332C132.635 22.4079 134.128 22.0452 135.792 22.0452C137.136 22.0452 138.309 22.2479 139.312 22.6532C140.336 23.0372 141.189 23.6239 141.872 24.4132C142.555 25.2026 143.077 26.1839 143.44 27.3572C143.803 28.5306 143.984 29.9066 143.984 31.4852H132.176L132.144 29.2132H139.248L138.544 30.1412C138.523 29.0532 138.459 28.1466 138.352 27.4212C138.245 26.6959 138.085 26.1199 137.872 25.6932C137.659 25.2666 137.392 24.9679 137.072 24.7972C136.752 24.6052 136.368 24.5092 135.92 24.5092C135.472 24.5092 135.067 24.6266 134.704 24.8612C134.341 25.0959 134.032 25.4586 133.776 25.9492C133.52 26.4399 133.317 27.0799 133.168 27.8692C133.019 28.6372 132.944 29.5652 132.944 30.6532ZM158.669 22.3333V27.2932C158.499 27.2292 158.307 27.1866 158.093 27.1652C157.901 27.1226 157.688 27.0906 157.453 27.0692C157.219 27.0479 156.984 27.0372 156.749 27.0372C156.259 27.0372 155.8 27.0906 155.373 27.1972C154.968 27.2826 154.584 27.4319 154.221 27.6452C153.88 27.8372 153.571 28.1039 153.293 28.4452C153.016 28.7652 152.76 29.1706 152.525 29.6612V27.8372C152.803 26.7279 153.144 25.7466 153.549 24.8932C153.976 24.0399 154.499 23.3786 155.117 22.9092C155.736 22.4186 156.525 22.1732 157.485 22.1732C157.741 22.1732 157.976 22.1946 158.189 22.2372C158.403 22.2586 158.563 22.2906 158.669 22.3333ZM145.645 38.7812V36.8292H145.677C146.168 36.8292 146.563 36.7652 146.861 36.6372C147.181 36.5092 147.341 36.2532 147.341 35.8692V25.5332C147.341 25.3199 147.288 25.1492 147.181 25.0212C147.096 24.8932 146.947 24.7972 146.733 24.7332C146.52 24.6479 146.243 24.5626 145.901 24.4772L145.645 24.4132V22.3652H152.813V27.5812L153.197 27.1972V36.2532C153.197 36.4239 153.315 36.5519 153.549 36.6372C153.784 36.7226 154.061 36.7759 154.381 36.7972C154.701 36.8186 154.989 36.8292 155.245 36.8292H155.533V38.7812H145.645ZM178.837 30.5892C178.837 32.2532 178.453 33.7359 177.685 35.0372C176.938 36.3172 175.861 37.3199 174.453 38.0452C173.066 38.7492 171.424 39.1013 169.525 39.1013C167.626 39.1013 165.973 38.7492 164.565 38.0452C163.178 37.3199 162.101 36.3172 161.333 35.0372C160.586 33.7359 160.213 32.2532 160.213 30.5892C160.213 29.3092 160.426 28.1572 160.853 27.1332C161.28 26.0879 161.898 25.1919 162.709 24.4452C163.541 23.6772 164.522 23.0906 165.653 22.6852C166.805 22.2586 168.096 22.0452 169.525 22.0452C170.954 22.0452 172.234 22.2586 173.365 22.6852C174.517 23.0906 175.498 23.6772 176.309 24.4452C177.141 25.1919 177.77 26.0879 178.197 27.1332C178.624 28.1572 178.837 29.3092 178.837 30.5892ZM166.197 30.5892C166.197 31.9119 166.325 33.0319 166.581 33.9492C166.858 34.8666 167.242 35.5599 167.733 36.0292C168.224 36.4986 168.821 36.7332 169.525 36.7332C170.229 36.7332 170.826 36.4986 171.317 36.0292C171.808 35.5599 172.181 34.8666 172.437 33.9492C172.693 33.0319 172.821 31.9119 172.821 30.5892C172.821 29.2239 172.693 28.0932 172.437 27.1972C172.181 26.3012 171.808 25.6292 171.317 25.1812C170.826 24.7332 170.229 24.5092 169.525 24.5092C168.821 24.5092 168.224 24.7332 167.733 25.1812C167.242 25.6292 166.858 26.3012 166.581 27.1972C166.325 28.0932 166.197 29.2239 166.197 30.5892ZM190.375 34.8452C190.375 34.4826 190.268 34.1839 190.055 33.9492C189.863 33.7146 189.585 33.5226 189.223 33.3732C188.881 33.2026 188.476 33.0532 188.007 32.9252C187.559 32.7972 187.079 32.6692 186.567 32.5412C185.927 32.3706 185.276 32.1786 184.615 31.9652C183.953 31.7306 183.345 31.4212 182.791 31.0372C182.257 30.6532 181.82 30.1626 181.479 29.5652C181.137 28.9466 180.967 28.1786 180.967 27.2612C180.967 26.1092 181.265 25.1492 181.863 24.3812C182.481 23.5919 183.324 22.9946 184.391 22.5892C185.479 22.1839 186.748 21.9812 188.199 21.9812C189.393 21.9812 190.417 22.0772 191.271 22.2692C192.124 22.4399 192.817 22.6532 193.351 22.9092C193.884 23.1439 194.257 23.3359 194.471 23.4852V26.8132H190.471V23.9972C190.791 23.9759 191.036 24.0186 191.207 24.1252C191.377 24.2106 191.473 24.3279 191.495 24.4772C191.537 24.6266 191.537 24.7972 191.495 24.9892C191.452 25.1599 191.388 25.3199 191.303 25.4692C191.068 25.2132 190.801 24.9999 190.503 24.8292C190.204 24.6372 189.863 24.4986 189.479 24.4132C189.116 24.3279 188.7 24.2852 188.231 24.2852C187.441 24.2852 186.833 24.4452 186.407 24.7652C186.001 25.0639 185.799 25.4692 185.799 25.9812C185.799 26.3652 185.905 26.6746 186.119 26.9092C186.332 27.1439 186.62 27.3466 186.983 27.5172C187.367 27.6879 187.793 27.8372 188.263 27.9652C188.753 28.0932 189.265 28.2319 189.799 28.3812C190.481 28.5519 191.153 28.7546 191.815 28.9892C192.497 29.2239 193.116 29.5332 193.671 29.9172C194.247 30.3012 194.705 30.7919 195.047 31.3892C195.388 31.9652 195.559 32.6799 195.559 33.5332C195.559 34.7279 195.249 35.7412 194.631 36.5732C194.033 37.3839 193.137 38.0132 191.943 38.4612C190.769 38.8879 189.319 39.1013 187.591 39.1013C186.439 39.1013 185.393 39.0053 184.455 38.8133C183.537 38.6426 182.737 38.4292 182.055 38.1732C181.393 37.8959 180.871 37.6399 180.487 37.4052V33.7892H184.583V37.5012C184.199 37.3092 183.911 37.1066 183.719 36.8932C183.527 36.6799 183.399 36.4666 183.335 36.2532C183.271 36.0399 183.271 35.8586 183.335 35.7092C183.42 35.5386 183.548 35.4319 183.719 35.3892C184.017 35.7306 184.359 36.0079 184.743 36.2212C185.148 36.4132 185.585 36.5626 186.055 36.6693C186.524 36.7546 187.047 36.7972 187.623 36.7972C188.199 36.7972 188.689 36.7226 189.095 36.5732C189.5 36.4239 189.809 36.2106 190.023 35.9332C190.257 35.6346 190.375 35.2719 190.375 34.8452Z" fill="#3C54AA"/>
<path d="M45.4415 63.3492C45.4415 63.4346 45.4948 63.4986 45.6015 63.5412C45.7081 63.5626 45.8468 63.5946 46.0175 63.6372C46.1881 63.6586 46.3695 63.6799 46.5615 63.7012C46.7748 63.7012 46.9881 63.7012 47.2015 63.7012H48.0015V65.7812H37.0255V63.7012H37.3455C37.9001 63.7012 38.3588 63.6266 38.7215 63.4772C39.0841 63.3279 39.2655 63.0186 39.2655 62.5492V46.2932C39.2655 45.8239 39.0841 45.5146 38.7215 45.3652C38.3588 45.2159 37.9001 45.1412 37.3455 45.1412H37.0255V43.0612H48.6735C51.4681 43.0612 53.6335 43.6586 55.1695 44.8532C56.7055 46.0266 57.4735 47.6906 57.4735 49.8452C57.4735 51.2959 57.1108 52.5652 56.3855 53.6532C55.6601 54.7199 54.6255 55.5519 53.2815 56.1492C51.9588 56.7252 50.3695 57.0132 48.5135 57.0132H44.4495V54.5812H47.2335C48.1295 54.5812 48.8761 54.4106 49.4735 54.0692C50.0921 53.7066 50.5615 53.1839 50.8815 52.5012C51.2015 51.7972 51.3615 50.9439 51.3615 49.9412C51.3615 48.9172 51.2015 48.0852 50.8815 47.4452C50.5615 46.7839 50.1028 46.2932 49.5055 45.9732C48.9295 45.6532 48.2148 45.4932 47.3615 45.4932H45.4415V63.3492ZM69.151 55.9252V57.8132C68.4256 57.9199 67.775 58.0479 67.199 58.1972C66.6443 58.3466 66.1536 58.5279 65.727 58.7412C65.3003 58.9546 64.9483 59.1999 64.671 59.4772C64.415 59.7332 64.2123 60.0426 64.063 60.4052C63.935 60.7466 63.871 61.1092 63.871 61.4932C63.871 61.9839 63.9456 62.3892 64.095 62.7092C64.2656 63.0292 64.5003 63.2746 64.799 63.4452C65.0976 63.5946 65.4496 63.6693 65.855 63.6693C66.3456 63.6693 66.7936 63.5412 67.199 63.2852C67.6043 63.0079 67.967 62.6239 68.287 62.1332C68.607 61.6426 68.8843 61.0666 69.119 60.4052L69.183 62.6132C68.863 63.3599 68.4576 63.9892 67.967 64.5012C67.4763 65.0132 66.879 65.4079 66.175 65.6852C65.4923 65.9626 64.6923 66.1013 63.775 66.1013C62.687 66.1013 61.7376 65.9413 60.927 65.6212C60.1376 65.2799 59.519 64.7892 59.071 64.1492C58.6443 63.4879 58.431 62.6879 58.431 61.7492C58.431 60.8532 58.655 60.0852 59.103 59.4452C59.5723 58.8052 60.255 58.2612 61.151 57.8132C62.047 57.3652 63.167 56.9919 64.511 56.6932C65.855 56.3732 67.4016 56.1172 69.151 55.9252ZM68.831 65.7812V62.6132L68.447 62.6772V53.9412C68.447 53.3439 68.3616 52.8639 68.191 52.5012C68.0203 52.1172 67.7536 51.8506 67.391 51.7012C67.0496 51.5306 66.623 51.4452 66.111 51.4452C65.343 51.4452 64.703 51.6159 64.191 51.9572C63.7003 52.2772 63.327 52.6826 63.071 53.1732C62.879 52.9599 62.7723 52.7572 62.751 52.5652C62.7296 52.3519 62.7616 52.1599 62.847 51.9892C62.9536 51.8186 63.1136 51.6692 63.327 51.5412C63.5403 51.3919 63.7963 51.2959 64.095 51.2532V54.6772H59.551V51.1892C59.871 50.9546 60.3403 50.6772 60.959 50.3572C61.599 50.0159 62.399 49.7172 63.359 49.4612C64.319 49.1839 65.439 49.0452 66.719 49.0452C67.807 49.0452 68.799 49.1626 69.695 49.3972C70.6123 49.6106 71.4016 49.9412 72.063 50.3892C72.7243 50.8372 73.2363 51.4239 73.599 52.1492C73.9616 52.8532 74.143 53.7172 74.143 54.7412V62.7732C74.143 62.9866 74.207 63.1572 74.335 63.2852C74.463 63.4132 74.6443 63.5092 74.879 63.5732C75.1136 63.6372 75.391 63.6906 75.711 63.7332L75.839 63.7652V65.7812H68.831ZM84.5402 42.2292V62.8692C84.5402 63.2532 84.7002 63.5092 85.0202 63.6372C85.3402 63.7652 85.7349 63.8292 86.2042 63.8292H86.2362V65.7812H76.9562V63.8292H76.9882C77.4789 63.8292 77.8842 63.7652 78.2042 63.6372C78.5242 63.5092 78.6842 63.2532 78.6842 62.8692V45.3652C78.6842 45.1519 78.6309 44.9812 78.5242 44.8532C78.4389 44.7252 78.2895 44.6186 78.0762 44.5332C77.8629 44.4479 77.5855 44.3732 77.2442 44.3092L76.9562 44.2452V42.2292H84.5402ZM95.0722 49.3652V62.8692C95.0722 63.2532 95.2322 63.5092 95.5522 63.6372C95.8935 63.7652 96.2989 63.8292 96.7682 63.8292H96.8002V65.7812H87.5202V63.8292H87.5522C88.0429 63.8292 88.4482 63.7652 88.7682 63.6372C89.0882 63.5092 89.2482 63.2532 89.2482 62.8692V52.5332C89.2482 52.1919 89.1309 51.9572 88.8962 51.8292C88.6615 51.7012 88.2882 51.5839 87.7762 51.4772L87.5202 51.4132V49.3652H95.0722ZM91.1682 43.6372C91.3389 43.0826 91.5415 42.6026 91.7762 42.1972C92.0322 41.7919 92.3415 41.4826 92.7042 41.2692C93.0669 41.0559 93.5042 40.9492 94.0162 40.9492C94.6775 40.9492 95.2109 41.1306 95.6162 41.4932C96.0215 41.8559 96.2242 42.3146 96.2242 42.8692C96.2242 43.2319 96.1495 43.5839 96.0002 43.9252C95.8509 44.2666 95.6375 44.5972 95.3602 44.9172C95.0829 45.2372 94.7202 45.5466 94.2722 45.8452L91.8082 47.8612H90.1122V47.0292L91.1682 43.6372ZM98.1452 65.7812V63.8292H98.1772C98.4972 63.8292 98.7852 63.8079 99.0412 63.7652C99.2972 63.7012 99.4892 63.6052 99.6172 63.4772C99.7665 63.3279 99.8412 63.1252 99.8412 62.8692V52.5332C99.8412 52.2986 99.7879 52.1279 99.6812 52.0212C99.5959 51.8932 99.4465 51.7972 99.2332 51.7332C99.0199 51.6479 98.7425 51.5626 98.4012 51.4772L98.1452 51.4132V49.3652H105.313V52.9172H105.697V63.5412C105.697 63.6052 105.772 63.6586 105.921 63.7012C106.092 63.7439 106.284 63.7759 106.497 63.7972C106.732 63.8186 106.945 63.8292 107.137 63.8292H107.233V65.7812H98.1452ZM118.273 65.7812H109.185V63.8292H109.217C109.409 63.8292 109.623 63.8292 109.857 63.8292C110.092 63.8079 110.295 63.7759 110.465 63.7332C110.636 63.6692 110.721 63.6052 110.721 63.5412V54.5172C110.721 53.9839 110.657 53.5466 110.529 53.2052C110.401 52.8639 110.209 52.6079 109.953 52.4372C109.697 52.2666 109.356 52.1812 108.929 52.1812C108.417 52.1812 107.937 52.3306 107.489 52.6292C107.041 52.9066 106.615 53.3226 106.209 53.8772C105.804 54.4319 105.42 55.1252 105.057 55.9572L104.993 53.0132C105.42 52.1812 105.921 51.4772 106.497 50.9012C107.095 50.3039 107.777 49.8452 108.545 49.5252C109.335 49.2052 110.199 49.0452 111.137 49.0452C112.225 49.0452 113.175 49.2586 113.985 49.6852C114.796 50.0906 115.425 50.7092 115.873 51.5412C116.321 52.3519 116.545 53.3652 116.545 54.5812V62.8692C116.545 63.1252 116.62 63.3279 116.769 63.4772C116.919 63.6052 117.111 63.7012 117.345 63.7652C117.601 63.8079 117.889 63.8292 118.209 63.8292H118.273V65.7812ZM137.919 62.7732C137.919 63.1146 138.047 63.3492 138.303 63.4772C138.58 63.5839 138.975 63.6692 139.487 63.7332L139.615 63.7652V65.7812H132.415V62.0052L132.063 62.2612V45.3652C132.063 45.1519 131.999 44.9812 131.871 44.8532C131.764 44.7252 131.593 44.6186 131.359 44.5332C131.145 44.4479 130.857 44.3732 130.495 44.3092L130.239 44.2452V42.2292H137.919V62.7732ZM127.359 49.0452C128.34 49.0452 129.193 49.2052 129.919 49.5252C130.665 49.8239 131.316 50.2826 131.871 50.9012C132.425 51.4986 132.905 52.2559 133.311 53.1732L133.215 56.2452C132.745 55.2639 132.297 54.4532 131.871 53.8132C131.465 53.1732 131.028 52.6932 130.559 52.3732C130.111 52.0532 129.577 51.8932 128.959 51.8932C128.425 51.8932 127.956 52.0319 127.551 52.3092C127.167 52.5866 126.836 52.9812 126.559 53.4932C126.303 53.9839 126.111 54.5919 125.983 55.3172C125.855 56.0426 125.791 56.8639 125.791 57.7812C125.791 58.6559 125.855 59.4346 125.983 60.1172C126.111 60.7786 126.292 61.3439 126.527 61.8132C126.783 62.2826 127.092 62.6346 127.455 62.8692C127.839 63.1039 128.276 63.2212 128.767 63.2212C129.364 63.2212 129.897 63.0506 130.367 62.7092C130.836 62.3679 131.295 61.8452 131.743 61.1412C132.191 60.4372 132.681 59.5306 133.215 58.4212L133.311 61.5252C132.777 62.5279 132.223 63.3706 131.647 64.0532C131.092 64.7359 130.452 65.2479 129.727 65.5892C129.001 65.9306 128.137 66.1013 127.135 66.1013C125.663 66.1013 124.372 65.7599 123.263 65.0772C122.175 64.3732 121.321 63.4026 120.703 62.1652C120.105 60.9066 119.807 59.4452 119.807 57.7812C119.807 56.0532 120.127 54.5386 120.767 53.2372C121.407 51.9359 122.292 50.9119 123.423 50.1652C124.575 49.4186 125.887 49.0452 127.359 49.0452ZM153.95 49.3333V54.2932C153.78 54.2292 153.588 54.1866 153.374 54.1652C153.182 54.1226 152.969 54.0906 152.734 54.0692C152.5 54.0479 152.265 54.0372 152.03 54.0372C151.54 54.0372 151.081 54.0906 150.654 54.1972C150.249 54.2826 149.865 54.4319 149.502 54.6452C149.161 54.8372 148.852 55.1039 148.574 55.4452C148.297 55.7652 148.041 56.1706 147.806 56.6612V54.8372C148.084 53.7279 148.425 52.7466 148.83 51.8932C149.257 51.0399 149.78 50.3786 150.398 49.9092C151.017 49.4186 151.806 49.1732 152.766 49.1732C153.022 49.1732 153.257 49.1946 153.47 49.2372C153.684 49.2586 153.844 49.2906 153.95 49.3333ZM140.926 65.7812V63.8292H140.958C141.449 63.8292 141.844 63.7652 142.142 63.6372C142.462 63.5092 142.622 63.2532 142.622 62.8692V52.5332C142.622 52.3199 142.569 52.1492 142.462 52.0212C142.377 51.8932 142.228 51.7972 142.014 51.7332C141.801 51.6479 141.524 51.5626 141.182 51.4772L140.926 51.4132V49.3652H148.094V54.5812L148.478 54.1972V63.2532C148.478 63.4239 148.596 63.5519 148.83 63.6372C149.065 63.7226 149.342 63.7759 149.662 63.7972C149.982 63.8186 150.27 63.8292 150.526 63.8292H150.814V65.7812H140.926ZM174.118 57.5892C174.118 59.2532 173.734 60.7359 172.966 62.0372C172.22 63.3172 171.142 64.3199 169.734 65.0452C168.348 65.7492 166.705 66.1013 164.806 66.1013C162.908 66.1013 161.254 65.7492 159.846 65.0452C158.46 64.3199 157.382 63.3172 156.614 62.0372C155.868 60.7359 155.494 59.2532 155.494 57.5892C155.494 56.3092 155.708 55.1572 156.134 54.1332C156.561 53.0879 157.18 52.1919 157.99 51.4452C158.822 50.6772 159.804 50.0906 160.934 49.6852C162.086 49.2586 163.377 49.0452 164.806 49.0452C166.236 49.0452 167.516 49.2586 168.646 49.6852C169.798 50.0906 170.78 50.6772 171.59 51.4452C172.422 52.1919 173.052 53.0879 173.478 54.1332C173.905 55.1572 174.118 56.3092 174.118 57.5892ZM161.478 57.5892C161.478 58.9119 161.606 60.0319 161.862 60.9492C162.14 61.8666 162.524 62.5599 163.014 63.0292C163.505 63.4986 164.102 63.7332 164.806 63.7332C165.51 63.7332 166.108 63.4986 166.598 63.0292C167.089 62.5599 167.462 61.8666 167.718 60.9492C167.974 60.0319 168.102 58.9119 168.102 57.5892C168.102 56.2239 167.974 55.0932 167.718 54.1972C167.462 53.3012 167.089 52.6292 166.598 52.1812C166.108 51.7332 165.51 51.5092 164.806 51.5092C164.102 51.5092 163.505 51.7332 163.014 52.1812C162.524 52.6292 162.14 53.3012 161.862 54.1972C161.606 55.0932 161.478 56.2239 161.478 57.5892ZM175.958 65.7812V63.8292H175.99C176.48 63.8292 176.875 63.7652 177.174 63.6372C177.494 63.5092 177.654 63.2532 177.654 62.8692V52.5332C177.654 52.3199 177.6 52.1492 177.494 52.0212C177.408 51.8932 177.259 51.7972 177.046 51.7332C176.832 51.6479 176.555 51.5626 176.214 51.4772L175.958 51.4132V49.3652H183.126V53.0132L183.51 52.9172V63.5412C183.51 63.6052 183.574 63.6692 183.702 63.7332C183.851 63.7759 184.011 63.8079 184.182 63.8292C184.374 63.8292 184.555 63.8292 184.726 63.8292H184.822V65.7812H175.958ZM194.934 65.7812H186.454V63.8292H186.486C186.678 63.8292 186.87 63.8292 187.062 63.8292C187.254 63.8079 187.414 63.7759 187.542 63.7332C187.691 63.6692 187.766 63.6052 187.766 63.5412V54.5492C187.766 54.0159 187.723 53.5786 187.638 53.2372C187.552 52.8746 187.403 52.6079 187.19 52.4372C186.998 52.2666 186.71 52.1812 186.326 52.1812C185.92 52.1812 185.526 52.3092 185.142 52.5652C184.758 52.7999 184.374 53.1839 183.99 53.7172C183.627 54.2506 183.254 54.9546 182.87 55.8292L182.806 52.9492C183.254 52.1172 183.755 51.4132 184.31 50.8372C184.864 50.2612 185.494 49.8239 186.198 49.5252C186.923 49.2052 187.712 49.0452 188.566 49.0452C189.568 49.0452 190.454 49.2586 191.222 49.6852C191.99 50.0906 192.576 50.7092 192.982 51.5412C193.408 52.3519 193.622 53.3652 193.622 54.5812V63.5092C193.622 63.5946 193.686 63.6692 193.814 63.7332C193.963 63.7759 194.134 63.8079 194.326 63.8292C194.539 63.8292 194.731 63.8292 194.902 63.8292H194.934V65.7812ZM205.494 65.7812H196.598V63.8292H196.662C196.832 63.8292 197.014 63.8186 197.206 63.7972C197.398 63.7759 197.558 63.7439 197.686 63.7012C197.835 63.6586 197.91 63.6052 197.91 63.5412V54.5492C197.91 54.0159 197.856 53.5786 197.75 53.2372C197.664 52.8746 197.515 52.6079 197.302 52.4372C197.11 52.2666 196.822 52.1812 196.438 52.1812C196.011 52.1812 195.606 52.3199 195.222 52.5972C194.838 52.8532 194.464 53.2479 194.102 53.7812C193.739 54.2932 193.366 54.9546 192.982 55.7652L192.918 52.9492C193.366 52.1172 193.867 51.4132 194.422 50.8372C194.998 50.2612 195.638 49.8239 196.342 49.5252C197.046 49.2052 197.824 49.0452 198.678 49.0452C199.68 49.0452 200.566 49.2586 201.334 49.6852C202.102 50.0906 202.688 50.7092 203.094 51.5412C203.52 52.3519 203.734 53.3652 203.734 54.5812V62.8692C203.734 63.2532 203.894 63.5092 204.214 63.6372C204.534 63.7652 204.928 63.8292 205.398 63.8292H205.494V65.7812ZM225.649 57.5892C225.649 59.2532 225.265 60.7359 224.497 62.0372C223.751 63.3172 222.673 64.3199 221.265 65.0452C219.879 65.7492 218.236 66.1013 216.337 66.1013C214.439 66.1013 212.785 65.7492 211.377 65.0452C209.991 64.3199 208.913 63.3172 208.145 62.0372C207.399 60.7359 207.025 59.2532 207.025 57.5892C207.025 56.3092 207.239 55.1572 207.665 54.1332C208.092 53.0879 208.711 52.1919 209.521 51.4452C210.353 50.6772 211.335 50.0906 212.465 49.6852C213.617 49.2586 214.908 49.0452 216.337 49.0452C217.767 49.0452 219.047 49.2586 220.177 49.6852C221.329 50.0906 222.311 50.6772 223.121 51.4452C223.953 52.1919 224.583 53.0879 225.009 54.1332C225.436 55.1572 225.649 56.3092 225.649 57.5892ZM213.009 57.5892C213.009 58.9119 213.137 60.0319 213.393 60.9492C213.671 61.8666 214.055 62.5599 214.545 63.0292C215.036 63.4986 215.633 63.7332 216.337 63.7332C217.041 63.7332 217.639 63.4986 218.129 63.0292C218.62 62.5599 218.993 61.8666 219.249 60.9492C219.505 60.0319 219.633 58.9119 219.633 57.5892C219.633 56.2239 219.505 55.0932 219.249 54.1972C218.993 53.3012 218.62 52.6292 218.129 52.1812C217.639 51.7332 217.041 51.5092 216.337 51.5092C215.633 51.5092 215.036 51.7332 214.545 52.1812C214.055 52.6292 213.671 53.3012 213.393 54.1972C213.137 55.0932 213.009 56.2239 213.009 57.5892ZM237.187 61.8452C237.187 61.4826 237.081 61.1839 236.867 60.9492C236.675 60.7146 236.398 60.5226 236.035 60.3732C235.694 60.2026 235.289 60.0532 234.819 59.9252C234.371 59.7972 233.891 59.6692 233.379 59.5412C232.739 59.3706 232.089 59.1786 231.427 58.9652C230.766 58.7306 230.158 58.4212 229.603 58.0372C229.07 57.6532 228.633 57.1626 228.291 56.5652C227.95 55.9466 227.779 55.1786 227.779 54.2612C227.779 53.1092 228.078 52.1492 228.675 51.3812C229.294 50.5919 230.137 49.9946 231.203 49.5892C232.291 49.1839 233.561 48.9812 235.011 48.9812C236.206 48.9812 237.23 49.0772 238.083 49.2692C238.937 49.4399 239.63 49.6532 240.163 49.9092C240.697 50.1439 241.07 50.3359 241.283 50.4852V53.8132H237.283V50.9972C237.603 50.9759 237.849 51.0186 238.019 51.1252C238.19 51.2106 238.286 51.3279 238.307 51.4772C238.35 51.6266 238.35 51.7972 238.307 51.9892C238.265 52.1599 238.201 52.3199 238.115 52.4692C237.881 52.2132 237.614 51.9999 237.315 51.8292C237.017 51.6372 236.675 51.4986 236.291 51.4132C235.929 51.3279 235.513 51.2852 235.043 51.2852C234.254 51.2852 233.646 51.4452 233.219 51.7652C232.814 52.0639 232.611 52.4692 232.611 52.9812C232.611 53.3652 232.718 53.6746 232.931 53.9092C233.145 54.1439 233.433 54.3466 233.795 54.5172C234.179 54.6879 234.606 54.8372 235.075 54.9652C235.566 55.0932 236.078 55.2319 236.611 55.3812C237.294 55.5519 237.966 55.7546 238.627 55.9892C239.31 56.2239 239.929 56.5332 240.483 56.9172C241.059 57.3012 241.518 57.7919 241.859 58.3892C242.201 58.9652 242.371 59.6799 242.371 60.5332C242.371 61.7279 242.062 62.7412 241.443 63.5732C240.846 64.3839 239.95 65.0132 238.755 65.4612C237.582 65.8879 236.131 66.1013 234.403 66.1013C233.251 66.1013 232.206 66.0053 231.267 65.8133C230.35 65.6426 229.55 65.4292 228.867 65.1732C228.206 64.8959 227.683 64.6399 227.299 64.4052V60.7892H231.395V64.5012C231.011 64.3092 230.723 64.1066 230.531 63.8932C230.339 63.6799 230.211 63.4666 230.147 63.2532C230.083 63.0399 230.083 62.8586 230.147 62.7092C230.233 62.5386 230.361 62.4319 230.531 62.3892C230.83 62.7306 231.171 63.0079 231.555 63.2212C231.961 63.4132 232.398 63.5626 232.867 63.6693C233.337 63.7546 233.859 63.7972 234.435 63.7972C235.011 63.7972 235.502 63.7226 235.907 63.5732C236.313 63.4239 236.622 63.2106 236.835 62.9332C237.07 62.6346 237.187 62.2719 237.187 61.8452Z" fill="#7D1515"/>
</svg>
